<svg xmlns="http://www.w3.org/2000/svg" version="1.1" xmlns:xlink="http://www.w3.org/1999/xlink" xmlns:svgjs="http://svgjs.dev/svgjs" width="1000" height="194" viewBox="0 0 1000 194"><g transform="matrix(1,0,0,1,-0.6060596191193213,-0.18732537510091163)"><svg viewBox="0 0 396 77" data-background-color="#ffffff" preserveAspectRatio="xMidYMid meet" height="194" width="1000" xmlns="http://www.w3.org/2000/svg" xmlns:xlink="http://www.w3.org/1999/xlink"><g id="tight-bounds" transform="matrix(1,0,0,1,0.24000039082875446,0.07435079321015792)"><svg viewBox="0 0 395.52 76.85129841357971" height="76.85129841357971" width="395.52"><g><svg viewBox="0 0 594.9407276335282 115.59963439966761" height="76.85129841357971" width="395.52"><g><rect width="10.37302918306938" height="115.59963439966761" x="161.89317179320923" y="0" fill="#090909" opacity="1" stroke-width="0" stroke="transparent" fill-opacity="1" class="rect-o-0" data-fill-palette-color="primary" rx="1%" id="o-0" data-palette-color="#090909"></rect></g><g transform="matrix(1,0,0,1,199.4207276335283,0.2875612796011566)"><svg viewBox="0 0 395.52 115.0245118404653" height="115.0245118404653" width="395.52"><g id="textblocktransform"><svg viewBox="0 0 395.52 115.0245118404653" height="115.0245118404653" width="395.52" id="textblock"><g><svg viewBox="0 0 395.52 115.0245118404653" height="115.0245118404653" width="395.52"><g transform="matrix(1,0,0,1,0,0)"><svg width="395.52" viewBox="4.699999809265137 -35 120.34000396728516 35" height="115.0245118404653" data-palette-color="#090909"><path d="M6.2-35L6.2-35 24.55-35Q25.15-35 25.6-34.58 26.05-34.15 26.05-33.5L26.05-33.5Q26.05-32.85 25.6-32.45 25.15-32.05 24.55-32.05L24.55-32.05 7.35-32.05 7.85-32.9 7.85-18.85 7.3-19.5 22.3-19.5Q22.9-19.5 23.35-19.05 23.8-18.6 23.8-18L23.8-18Q23.8-17.35 23.35-16.95 22.9-16.55 22.3-16.55L22.3-16.55 7.4-16.55 7.85-17.05 7.85-2.65 7.6-2.95 24.55-2.95Q25.15-2.95 25.6-2.5 26.05-2.05 26.05-1.45L26.05-1.45Q26.05-0.8 25.6-0.4 25.15 0 24.55 0L24.55 0 6.2 0Q5.6 0 5.15-0.45 4.7-0.9 4.7-1.5L4.7-1.5 4.7-33.5Q4.7-34.1 5.15-34.55 5.6-35 6.2-35ZM43.5 0L43.5 0Q42.8 0 42.37-0.45 41.95-0.9 41.95-1.5L41.95-1.5 41.95-33.35 45.05-33.35 45.05-1.5Q45.05-0.9 44.6-0.45 44.15 0 43.5 0ZM55.4-32.15L31.6-32.15Q31-32.15 30.55-32.55 30.1-32.95 30.1-33.6L30.1-33.6Q30.1-34.2 30.55-34.6 31-35 31.6-35L31.6-35 55.4-35Q56-35 56.45-34.6 56.9-34.2 56.9-33.55L56.9-33.55Q56.9-32.9 56.45-32.52 56-32.15 55.4-32.15L55.4-32.15ZM66.45-33.45L66.45-1.55Q66.4-0.9 65.92-0.45 65.45 0 64.84 0L64.84 0Q64.15 0 63.72-0.45 63.3-0.9 63.3-1.55L63.3-1.55 63.3-33.45Q63.3-34.1 63.75-34.55 64.2-35 64.9-35L64.9-35Q65.5-35 65.97-34.55 66.45-34.1 66.45-33.45L66.45-33.45ZM77.29-35L77.29-35 95.64-35Q96.24-35 96.69-34.58 97.14-34.15 97.14-33.5L97.14-33.5Q97.14-32.85 96.69-32.45 96.24-32.05 95.64-32.05L95.64-32.05 78.44-32.05 78.94-32.9 78.94-18.85 78.39-19.5 93.39-19.5Q93.99-19.5 94.44-19.05 94.89-18.6 94.89-18L94.89-18Q94.89-17.35 94.44-16.95 93.99-16.55 93.39-16.55L93.39-16.55 78.49-16.55 78.94-17.05 78.94-2.65 78.69-2.95 95.64-2.95Q96.24-2.95 96.69-2.5 97.14-2.05 97.14-1.45L97.14-1.45Q97.14-0.8 96.69-0.4 96.24 0 95.64 0L95.64 0 77.29 0Q76.69 0 76.24-0.45 75.79-0.9 75.79-1.5L75.79-1.5 75.79-33.5Q75.79-34.1 76.24-34.55 76.69-35 77.29-35ZM106.39-2.95L123.54-2.95Q124.14-2.95 124.59-2.53 125.04-2.1 125.04-1.5L125.04-1.5Q125.04-0.85 124.59-0.43 124.14 0 123.54 0L123.54 0 105.69 0Q105.04 0 104.62-0.45 104.19-0.9 104.19-1.5L104.19-1.5 104.19-33.5Q104.19-34.1 104.64-34.55 105.09-35 105.79-35L105.79-35Q106.39-35 106.87-34.55 107.34-34.1 107.34-33.5L107.34-33.5 107.34-2.1 106.39-2.95Z" opacity="1" transform="matrix(1,0,0,1,0,0)" fill="#090909" class="wordmark-text-0" data-fill-palette-color="primary" id="text-0"></path></svg></g></svg></g></svg></g></svg></g><g transform="matrix(1,0,0,1,0,0.2875612796011566)"><svg viewBox="0 0 134.73864513595956 115.0245118404653" height="115.0245118404653" width="134.73864513595956"><g><svg xmlns="http://www.w3.org/2000/svg" xmlns:xlink="http://www.w3.org/1999/xlink" version="1.1" x="0" y="0" viewBox="10.655000686645508 16.413000106811523 78.68700408935547 67.17400360107422" enable-background="new 0 0 100 100" xml:space="preserve" height="115.0245118404653" width="134.73864513595956" class="icon-icon-0" data-fill-palette-color="accent" id="icon-0"><path d="M87.426 16.413H12.574c-1.06 0-1.919 0.859-1.919 1.919v2.879c0 1.061 0.859 1.919 1.919 1.919h0.959v49.901 8.637c0 1.06 0.859 1.919 1.919 1.919h25.91 17.273 25.91c1.06 0 1.919-0.859 1.919-1.919v-8.637V23.13h0.959c1.06 0 1.919-0.858 1.919-1.919v-2.879C89.345 17.272 88.486 16.413 87.426 16.413zM58.637 50.959H41.363c-1.06 0-1.919 0.859-1.919 1.919v18.233H17.373V38.481c0.739 0.31 1.549 0.483 2.398 0.483 1.675 0 3.197-0.663 4.319-1.74 1.121 1.078 2.644 1.74 4.318 1.74 1.675 0 3.198-0.663 4.319-1.74 1.121 1.078 2.644 1.74 4.318 1.74s3.197-0.663 4.318-1.74c1.122 1.078 2.644 1.74 4.319 1.74 1.674 0 3.196-0.663 4.318-1.74 1.122 1.078 2.644 1.74 4.318 1.74 1.675 0 3.197-0.663 4.319-1.74 1.121 1.078 2.644 1.74 4.318 1.74s3.197-0.663 4.318-1.74c1.121 1.078 2.644 1.74 4.319 1.74 1.674 0 3.197-0.663 4.318-1.74 1.122 1.078 2.644 1.74 4.319 1.74 0.85 0 1.659-0.173 2.398-0.483v32.631H60.556V52.879C60.556 51.819 59.697 50.959 58.637 50.959zM65.354 23.13v9.597c0 1.323-1.077 2.399-2.399 2.399s-2.399-1.076-2.399-2.399V23.13H65.354zM56.717 23.13v9.597c0 1.323-1.076 2.399-2.399 2.399-1.322 0-2.398-1.076-2.398-2.399V23.13H56.717zM48.081 23.13v9.597c0 1.323-1.076 2.399-2.398 2.399-1.323 0-2.399-1.076-2.399-2.399V23.13H48.081zM39.444 23.13v9.597c0 1.323-1.076 2.399-2.399 2.399s-2.399-1.076-2.399-2.399V23.13H39.444zM30.808 23.13v9.597c0 1.323-1.077 2.399-2.4 2.399-1.322 0-2.398-1.076-2.398-2.399V23.13H30.808zM73.991 32.727c0 1.323-1.076 2.399-2.398 2.399-1.323 0-2.4-1.076-2.4-2.399V23.13h4.798V32.727zM22.17 23.13v9.597c0 1.323-1.077 2.399-2.399 2.399-1.322 0-2.398-1.076-2.398-2.399V23.13H22.17zM17.373 74.951h22.071v4.798H17.373V74.951zM43.283 73.031V54.798h13.435v18.233 6.717H43.283V73.031zM82.627 79.749H60.556v-4.798h22.071V79.749zM82.627 32.727c0 1.323-1.076 2.399-2.398 2.399-1.323 0-2.399-1.076-2.399-2.399V23.13h4.798V32.727z" fill="#ff851b" data-fill-palette-color="accent"></path></svg></g></svg></g></svg></g><defs></defs></svg><rect width="395.52" height="76.85129841357971" fill="none" stroke="none" visibility="hidden"></rect></g></svg></g></svg>