<svg xmlns="http://www.w3.org/2000/svg" version="1.1" xmlns:xlink="http://www.w3.org/1999/xlink" xmlns:svgjs="http://svgjs.dev/svgjs" width="1000" height="295" viewBox="0 0 1000 295"><g transform="matrix(1,0,0,1,-0.6060575590486792,-0.03789733530095418)"><svg viewBox="0 0 396 117" data-background-color="#444444" preserveAspectRatio="xMidYMid meet" height="295" width="1000" xmlns="http://www.w3.org/2000/svg" xmlns:xlink="http://www.w3.org/1999/xlink"><g id="tight-bounds" transform="matrix(1,0,0,1,0.2399999890375284,0.015030654567652846)"><svg viewBox="0 0 395.52 116.96993887685535" height="116.96993887685535" width="395.52"><g><svg viewBox="0 0 705.5849894627602 208.667660522567" height="116.96993887685535" width="395.52"><g><rect width="10.525628234582026" height="183.67553056500495" x="271.9853606140891" y="12.496064978781021" fill="#ffffff" opacity="1" stroke-width="0" stroke="transparent" fill-opacity="1" class="rect-o-0" data-fill-palette-color="primary" rx="1%" id="o-0" data-palette-color="#ffffff"></rect></g><g transform="matrix(1,0,0,1,310.0649894627602,12.952969283669077)"><svg viewBox="0 0 395.52 182.76172195522884" height="182.76172195522884" width="395.52"><g id="textblocktransform"><svg viewBox="0 0 395.52 182.76172195522884" height="182.76172195522884" width="395.52" id="textblock"><g><svg viewBox="0 0 395.52 116.71665317139002" height="116.71665317139002" width="395.52"><g transform="matrix(1,0,0,1,0,0)"><svg width="395.52" viewBox="4.5 -32.79999923706055 111.13999938964844 32.79999923706055" height="116.71665317139002" data-palette-color="#ffffff"><g class="wordmark-text-0" data-fill-palette-color="primary" id="text-0"><path d="M23.9 0L4.5 0 4.5-32.8 23.4-32.8 23.4-29.3 8.65-29.3 8.65-19 21.1-19 21.1-15.45 8.65-15.45 8.65-3.55 23.9-3.55 23.9 0ZM41.85 0L37.65 0 37.65-29.3 27.75-29.3 27.75-32.8 51.75-32.8 51.75-29.3 41.85-29.3 41.85 0ZM61.8 0L57.65 0 57.65-32.8 61.8-32.8 61.8 0ZM90.19 0L70.79 0 70.79-32.8 89.69-32.8 89.69-29.3 74.94-29.3 74.94-19 87.39-19 87.39-15.45 74.94-15.45 74.94-3.55 90.19-3.55 90.19 0ZM115.64 0L97.14 0 97.14-32.8 101.29-32.8 101.29-3.55 115.64-3.55 115.64 0Z" fill="#ffffff" data-fill-palette-color="primary"></path></g></svg></g></svg></g><g transform="matrix(1,0,0,1,0,144.27065378547908)"><svg viewBox="0 0 232.209792 38.491068169749724" height="38.491068169749724" width="232.209792"><g transform="matrix(1,0,0,1,0,0)"><svg width="232.209792" viewBox="2.200000047683716 -40.15999984741211 336.5199890136719 55.790000915527344" height="38.491068169749724" data-palette-color="#ff851b"><path d="M19.24-33.96L20.61-34.13Q20.85-34.13 20.85-33.59L20.85-33.59 21.48-28.39Q21.58-27.91 21.58-27.77 21.58-27.64 21.2-27.64 20.83-27.64 20.73-27.73 20.63-27.83 20.53-28.06 20.43-28.3 20.3-28.59 20.17-28.88 20.02-29.17L20.02-29.17Q19.51-30.3 18.41-31.4L18.41-31.4Q15.72-33.98 12.35-33.98L12.35-33.98Q10.33-33.98 8.52-32.67 6.71-31.35 6.71-29.55 6.71-27.76 7.39-26.44 8.06-25.12 9.16-24 10.25-22.88 11.67-21.85 13.09-20.83 14.55-19.78L14.55-19.78Q18.43-17.07 20.07-15.14L20.07-15.14Q22.63-12.16 22.85-8.45L22.85-8.45Q22.85-4.3 19.67-1.82 16.48 0.66 12.26 0.66L12.26 0.66Q9.55 0.66 7.95 0.11 6.35-0.44 5.74-0.68 5.13-0.93 4.85-0.93 4.57-0.93 4.49-0.9L4.49-0.9 3.3-0.66Q2.98-0.66 2.91-1.17L2.91-1.17Q2.2-7.23 2.2-7.6 2.2-7.98 2.26-8.12 2.32-8.25 2.59-8.25L2.59-8.25Q3.27-8.25 3.83-6.3L3.83-6.3Q6.4-0.81 12.35-0.81L12.35-0.81Q15.09-0.81 17.03-2.47 18.97-4.13 18.97-6.79L18.97-6.79Q18.97-11.04 13.89-14.7L13.89-14.7Q12.45-15.72 9.74-17.55 7.03-19.38 5.42-21.22L5.42-21.22Q2.91-24.05 2.91-27.53 2.91-31.01 5.68-33.23 8.45-35.45 12.04-35.45L12.04-35.45Q13.89-35.45 16.13-34.81 18.36-34.18 19.24-33.96L19.24-33.96ZM33.37-39.58L33.37-18.9Q33.37-18.31 33.54-18.31 33.71-18.31 33.79-18.4 33.86-18.48 34.81-19.53L34.81-19.53Q37.57-22.61 40.4-22.61L40.4-22.61Q44.11-22.61 45.85-20.95L45.85-20.95Q47.97-18.85 47.97-13.89L47.97-13.89 47.97-3.71Q47.97-1.32 50.61-0.93L50.61-0.93Q51.76-0.78 51.76-0.42 51.76-0.05 51.51 0L51.51 0 40.62 0Q40.38-0.05 40.38-0.34L40.38-0.34Q40.38-0.78 41.53-0.93L41.53-0.93Q44.16-1.32 44.16-3.71L44.16-3.71 44.16-13.65Q44.16-17.24 43.65-18.31L43.65-18.31Q42.67-20.46 39.57-20.46L39.57-20.46Q37.67-20.46 35.52-18.84 33.37-17.21 33.37-15.26L33.37-15.26 33.37-3.71Q33.37-1.32 36.01-0.93L36.01-0.93Q37.16-0.78 37.16-0.42 37.16-0.05 36.91 0L36.91 0 26.02 0Q25.78-0.05 25.78-0.34L25.78-0.34Q25.78-0.78 26.93-0.93L26.93-0.93Q29.56-1.32 29.56-3.71L29.56-3.71 29.56-34.16Q29.56-35.18 28.44-35.57L28.44-35.57Q27.95-35.74 27.39-35.85 26.83-35.96 26.5-36.06 26.17-36.16 26.08-36.24 26-36.33 26-36.61 26-36.89 26.36-37.08L26.36-37.08 32.59-40.01Q32.88-40.16 32.96-40.16L32.96-40.16Q33.37-40.16 33.37-39.58L33.37-39.58ZM54.32-10.97Q54.32-15.77 57.72-19.23 61.13-22.68 65.89-22.68 70.65-22.68 74.16-19.32 77.68-15.97 77.68-11.04 77.68-6.1 74.35-2.72 71.02 0.66 65.99 0.66 60.96 0.66 57.64-2.76 54.32-6.18 54.32-10.97ZM60.4-4.69L60.4-4.69Q62.79-0.66 66.91-0.66L66.91-0.66Q70.11-0.66 71.81-3.22 73.51-5.79 73.51-9.52 73.51-13.26 71.13-17.19 68.75-21.12 64.72-21.12L64.72-21.12Q61.76-21.12 60.07-18.57 58.37-16.02 58.37-12.1 58.37-8.18 60.4-4.69ZM99.6-2.56L99.6-2.56Q96.23 0.66 92.03 0.66L92.03 0.66Q90.52 0.66 87.91 0.1L87.91 0.1Q87.49 0.1 87.46 0.39 87.42 0.68 87.39 1L87.39 1 87.39 11.43Q87.39 13.26 89.52 13.87L89.52 13.87Q90.45 14.11 91.25 14.22 92.06 14.33 92.29 14.43 92.52 14.53 92.52 14.81 92.52 15.09 92.28 15.14L92.28 15.14 80.05 15.14Q79.8 15.09 79.8 14.79L79.8 14.79Q79.8 14.36 80.95 14.21L80.95 14.21Q83.59 13.82 83.59 11.43L83.59 11.43 83.59-17.85Q83.59-18.87 82.46-19.26L82.46-19.26Q81.97-19.43 81.41-19.54 80.85-19.65 80.52-19.75 80.19-19.85 80.11-19.93 80.02-20.02 80.02-20.3 80.02-20.58 80.39-20.78L80.39-20.78 86.61-23.75Q86.81-23.85 87-23.85L87-23.85Q87.39-23.85 87.39-23.27L87.39-23.27 87.39-20.17Q87.39-19.9 87.68-19.9 87.96-19.9 89.03-20.61L89.03-20.61Q92.13-22.61 95.48-22.61L95.48-22.61Q97.82-22.61 99.77-20.7L99.77-20.7Q102.34-18.21 103.19-13.77L103.19-13.77Q103.43-12.5 103.43-11.07 103.43-9.64 102.97-8.06L102.97-8.06Q102.04-4.91 99.6-2.56ZM92.62-20.07L92.62-20.07Q89.3-20.07 87.39-18.16L87.39-18.16 87.39-4.44Q87.39-3.22 87.81-2.86L87.81-2.86Q88.88-1.93 91.11-1.42L91.11-1.42Q95.5-0.42 97.94-3.52L97.94-3.52Q99.68-5.74 99.68-8.89L99.68-8.89Q99.68-15.01 96.92-18.07L96.92-18.07Q95.26-19.92 92.62-20.07ZM132.53-0.78L132.53-0.2Q132.53 0 132.34 0L132.34 0 119.86 0Q119.67 0 119.67-0.2L119.67-0.2 119.67-0.78Q119.67-0.98 119.98-0.98L119.98-0.98Q123.33-1.12 124.5-4.54L124.5-4.54 134.46-33.37Q134.48-33.42 134.48-33.5L134.48-33.5 134.22-34.3Q134.22-34.42 134.31-34.42L134.31-34.42 139.2-34.42Q139.25-34.4 139.33-34.38 139.42-34.35 139.47-34.23L139.47-34.23 149.79-5.25Q150.13-4.59 150.34-4.05 150.55-3.52 150.82-3.08L150.82-3.08Q151.4-2.08 152.75-1.54L152.75-1.54Q153.87-0.98 154.8-0.98L154.8-0.98Q154.99-0.98 154.99-0.76L154.99-0.76 154.99-0.2Q154.99 0 154.8 0L154.8 0 139.86 0Q139.66 0 139.66-0.2L139.66-0.2 139.66-0.78Q139.66-0.98 140.56-1.03 141.47-1.07 142.05-1.12L142.05-1.12Q145.45-1.49 145.45-3.42L145.45-3.42Q145.45-3.56 145.4-3.76L145.4-3.76 141.71-14.16Q141.69-14.21 141.61-14.38L141.61-14.38Q141.32-15.21 140.59-15.21L140.59-15.21 131.92-15.21Q131.19-15.21 130.77-14.4L130.77-14.4Q130.7-14.23 130.7-14.21L130.7-14.21 127.04-3.49 127.04-3.27Q127.04-2.64 127.7-2.12L127.7-2.12Q129.19-0.98 131.7-0.98L131.7-0.98 132.34-0.98Q132.53-0.98 132.53-0.78L132.53-0.78ZM132.56-17.92L139.76-17.92Q140.2-17.92 140.2-18.29L140.2-18.29Q140.2-18.48 140.1-18.73L140.1-18.73 136.46-28.74Q136.22-29.39 136.1-29.39L136.1-29.39Q135.97-29.39 135.71-28.71L135.71-28.71 132.29-18.73Q132.19-18.48 132.19-18.2 132.19-17.92 132.56-17.92L132.56-17.92ZM174.74-7.69L174.74-7.69 174.69-12.84Q174.69-15.99 174.15-17.26 173.62-18.53 172.79-19.18 171.96-19.82 170.55-19.82 169.15-19.82 164.61-17.63L164.61-17.63Q164-17.26 163.97-16.94L163.97-16.94 163.97-3.81Q163.97-1.34 166.61-0.98L166.61-0.98Q167.76-0.81 167.76-0.43 167.76-0.05 167.51 0L167.51 0 156.63 0Q156.38-0.05 156.38-0.34L156.38-0.34Q156.38-0.81 157.53-0.98L157.53-0.98Q160.17-1.34 160.17-3.81L160.17-3.81 160.17-17.82Q160.17-18.85 159.04-19.24L159.04-19.24Q158.55-19.41 157.99-19.52 157.43-19.63 157.1-19.73 156.77-19.82 156.69-19.91 156.6-20 156.6-20.28 156.6-20.56 156.97-20.75L156.97-20.75 163.19-23.68Q163.49-23.83 163.56-23.83L163.56-23.83Q163.97-23.83 163.97-23.24L163.97-23.24 163.97-19.43Q164.05-19.19 164.17-19.19L164.17-19.19Q164.32-19.19 165.22-19.63L165.22-19.63Q167.32-20.68 169.44-21.66 171.57-22.63 172.96-22.63L172.96-22.63Q178.6-22.63 178.6-12.35L178.6-12.35 178.38-5.22 178.38-3.81Q178.38-1.9 180.28-1.32L180.28-1.32Q181.09-1.05 181.83-0.94 182.58-0.83 182.81-0.73 183.04-0.63 183.04-0.34 183.04-0.05 182.8 0L182.8 0 171.03 0Q170.79-0.05 170.79-0.34L170.79-0.34Q170.79-0.81 171.93-0.98L171.93-0.98Q174.55-1.34 174.55-4L174.55-4Q174.74-5.22 174.74-7.69ZM199.81-21.97L209.06-21.97Q209.33-21.9 209.33-21.63 209.33-21.36 209.28-21.28 209.24-21.19 209.05-21.13 208.87-21.07 208.54-21.02 208.21-20.97 207.5-20.84 206.79-20.7 206.23-19.85 205.67-18.99 205.04-17.48L205.04-17.48 193.56 10.96 191.97 14.33Q191.36 15.63 189.41 15.63L189.41 15.63Q188.56 15.63 188.04 15.06 187.53 14.5 187.53 13.73 187.53 12.96 187.91 12.61 188.29 12.26 188.8 12.04 189.31 11.82 189.86 11.63 190.41 11.45 191.1 10.8 191.78 10.16 191.9 9.84L191.9 9.84Q196 0.66 196 0.24 196-0.17 195.51-0.78L195.51-0.78 187.46-17.6Q186.55-20.07 184.36-20.78L184.36-20.78Q184.19-20.83 183.94-20.85L183.94-20.85Q182.92-20.95 182.92-21.46 182.92-21.97 183.5-21.97L183.5-21.97 194.37-21.97Q194.56-21.97 194.56-21.59 194.56-21.22 194.22-21.08 193.88-20.95 192.71-20.95L192.71-20.95Q190.83-20.95 190.83-19.48L190.83-19.48 191.05-18.9 197.37-5.35Q197.86-4.1 198.35-5.42L198.35-5.42Q198.4-5.54 198.96-7.01L198.96-7.01Q202.28-15.43 202.68-16.75 203.08-18.07 203.08-18.73 203.08-19.38 202.39-20.12 201.69-20.85 200.48-20.85 199.27-20.85 199.27-21.56L199.27-21.56Q199.27-21.97 199.81-21.97L199.81-21.97ZM239.77-21.97L249.03-21.97Q249.3-21.9 249.3-21.63 249.3-21.36 249.22-21.24 249.15-21.12 248.15-20.97 247.15-20.83 246.72-20.4 246.29-19.97 245.96-19.43 245.63-18.9 245.39-18.32 245.15-17.75 244.93-17.29L244.93-17.29 238.26-0.05Q237.97 0.66 237.72 0.66L237.72 0.66 235.8 0.66Q235.55 0.66 235.26-0.1L235.26-0.1 229.84-14.77 224.15-0.05Q223.86 0.66 223.61 0.66L223.61 0.66 221.68 0.66Q221.44 0.66 221.15-0.1L221.15-0.1 214.68-17.6Q213.77-20.07 211.58-20.78L211.58-20.78Q211.41-20.83 211.16-20.85L211.16-20.85Q210.14-20.95 210.14-21.46 210.14-21.97 210.72-21.97L210.72-21.97 221.59-21.97Q221.78-21.97 221.78-21.59 221.78-21.22 221.51-21.09L221.51-21.09Q221.07-20.92 220-20.95L220-20.95Q218.22-21 218.22-19.48L218.22-19.48 218.27-18.9 223.22-5.35Q223.71-4.1 224.2-5.42L224.2-5.42Q224.25-5.54 226.24-10.55 228.23-15.55 228.79-17.6L228.79-17.6Q227.89-20.07 225.69-20.78L225.69-20.78Q225.52-20.83 225.27-20.85L225.27-20.85Q224.25-20.95 224.25-21.46 224.25-21.97 224.83-21.97L224.83-21.97 235.7-21.97Q235.89-21.97 235.89-21.59 235.89-21.22 235.62-21.09L235.62-21.09Q235.19-20.92 234.11-20.95L234.11-20.95Q232.33-21 232.33-19.48L232.33-19.48 232.38-18.9 237.33-5.35Q237.82-4.1 238.31-5.42L238.31-5.42Q238.36-5.54 238.94-7.01L238.94-7.01Q241.95-14.53 242.5-16.3 243.05-18.07 243.05-18.73 243.05-19.38 242.34-20.1 241.63-20.83 240.43-20.83 239.24-20.83 239.24-21.56L239.24-21.56Q239.24-21.97 239.77-21.97L239.77-21.97ZM258.35-39.58L258.35-18.9Q258.35-18.31 258.52-18.31 258.69-18.31 258.77-18.4 258.84-18.48 259.79-19.53L259.79-19.53Q262.55-22.61 265.38-22.61L265.38-22.61Q269.09-22.61 270.83-20.95L270.83-20.95Q272.95-18.85 272.95-13.89L272.95-13.89 272.95-3.71Q272.95-1.32 275.59-0.93L275.59-0.93Q276.74-0.78 276.74-0.42 276.74-0.05 276.49 0L276.49 0 265.6 0Q265.36-0.05 265.36-0.34L265.36-0.34Q265.36-0.78 266.51-0.93L266.51-0.93Q269.14-1.32 269.14-3.71L269.14-3.71 269.14-13.65Q269.14-17.24 268.63-18.31L268.63-18.31Q267.65-20.46 264.55-20.46L264.55-20.46Q262.65-20.46 260.5-18.84 258.35-17.21 258.35-15.26L258.35-15.26 258.35-3.71Q258.35-1.32 260.99-0.93L260.99-0.93Q262.14-0.78 262.14-0.42 262.14-0.05 261.89 0L261.89 0 251 0Q250.76-0.05 250.76-0.34L250.76-0.34Q250.76-0.78 251.91-0.93L251.91-0.93Q254.54-1.32 254.54-3.71L254.54-3.71 254.54-34.16Q254.54-35.18 253.42-35.57L253.42-35.57Q252.93-35.74 252.37-35.85 251.81-35.96 251.48-36.06 251.15-36.16 251.06-36.24 250.98-36.33 250.98-36.61 250.98-36.89 251.34-37.08L251.34-37.08 257.57-40.01Q257.86-40.16 257.94-40.16L257.94-40.16Q258.35-40.16 258.35-39.58L258.35-39.58ZM297.27-12.87L283.1-12.87Q282.69-12.87 282.69-11.08L282.69-11.08Q282.69-7.3 284.94-4.74 287.18-2.17 290.51-2.17 293.85-2.17 296.92-5.05L296.92-5.05Q296.97-5.1 297.05-5.1L297.05-5.1 297.17-5.1Q297.31-5.1 297.45-4.87 297.58-4.64 297.7-4.57L297.7-4.57Q294.87-1.12 291.04 0.2L291.04 0.2Q289.72 0.66 288.06 0.66 286.4 0.66 284.69-0.26 282.98-1.17 281.76-2.66L281.76-2.66Q279.17-5.76 279.17-10.39 279.17-15.01 281.99-18.82 284.81-22.63 289.75-22.63L289.75-22.63Q293.29-22.63 295.53-19.47 297.78-16.31 297.78-13.92L297.78-13.92Q297.78-12.87 297.27-12.87L297.27-12.87ZM283.37-15.5L283.37-15.21Q283.37-14.75 283.81-14.75L283.81-14.75 293.02-14.75Q293.65-14.75 293.65-15.5L293.65-15.5Q293.65-17.26 292.08-19.1 290.5-20.95 288.62-20.95L288.62-20.95Q286.79-20.95 285.29-19.29 283.79-17.63 283.37-15.5L283.37-15.5ZM316.72-17.5L316.72-17.5Q316.43-17.55 315.87-17.82L315.87-17.82Q313.84-18.75 312.69-18.75 311.54-18.75 310.29-17.32 309.03-15.89 309.03-14.75L309.03-14.75 309.03-3.71Q309.03-1.88 311.15-1.27L311.15-1.27Q312.08-1.03 312.89-0.92 313.69-0.81 313.93-0.71 314.16-0.61 314.16-0.33 314.16-0.05 313.91 0L313.91 0 301.68 0Q301.44-0.05 301.44-0.34L301.44-0.34Q301.44-0.78 302.58-0.93L302.58-0.93Q305.22-1.32 305.22-3.71L305.22-3.71 305.22-16.63Q305.22-17.65 304.1-18.04L304.1-18.04Q303.61-18.21 303.05-18.32 302.49-18.43 302.16-18.53 301.83-18.63 301.74-18.71 301.66-18.8 301.66-19.08 301.66-19.36 302.02-19.56L302.02-19.56 308.25-22.49Q308.54-22.63 308.62-22.63L308.62-22.63Q309.03-22.63 309.03-22.05L309.03-22.05 309.03-18.09Q309.03-17.8 309.18-17.8L309.18-17.8Q309.37-17.8 310.18-18.95L310.18-18.95Q312.5-22.19 314.01-22.19L314.01-22.19Q314.87-22.19 316.64-21.51 318.41-20.83 318.41-20.36L318.41-20.36Q318.41-19.8 317.84-18.65 317.28-17.5 316.72-17.5ZM338.2-12.87L324.04-12.87Q323.63-12.87 323.63-11.08L323.63-11.08Q323.63-7.3 325.87-4.74 328.12-2.17 331.45-2.17 334.78-2.17 337.86-5.05L337.86-5.05Q337.91-5.1 337.98-5.1L337.98-5.1 338.1-5.1Q338.25-5.1 338.39-4.87 338.52-4.64 338.64-4.57L338.64-4.57Q335.81-1.12 331.98 0.2L331.98 0.2Q330.66 0.66 329 0.66 327.34 0.66 325.63-0.26 323.92-1.17 322.7-2.66L322.7-2.66Q320.11-5.76 320.11-10.39 320.11-15.01 322.93-18.82 325.75-22.63 330.68-22.63L330.68-22.63Q334.22-22.63 336.47-19.47 338.72-16.31 338.72-13.92L338.72-13.92Q338.72-12.87 338.2-12.87L338.2-12.87ZM324.31-15.5L324.31-15.21Q324.31-14.75 324.75-14.75L324.75-14.75 333.95-14.75Q334.59-14.75 334.59-15.5L334.59-15.5Q334.59-17.26 333.01-19.1 331.44-20.95 329.56-20.95L329.56-20.95Q327.73-20.95 326.23-19.29 324.73-17.63 324.31-15.5L324.31-15.5Z" opacity="1" transform="matrix(1,0,0,1,0,0)" fill="#ff851b" class="slogan-text-1" data-fill-palette-color="secondary" id="text-1"></path></svg></g></svg></g></svg></g></svg></g><g><svg viewBox="0 0 244.43135999999998 208.667660522567" height="208.667660522567" width="244.43135999999998"><g><svg xmlns="http://www.w3.org/2000/svg" xmlns:xlink="http://www.w3.org/1999/xlink" version="1.1" x="0" y="0" viewBox="10.655000686645508 16.413000106811523 78.68700408935547 67.17400360107422" enable-background="new 0 0 100 100" xml:space="preserve" height="208.667660522567" width="244.43135999999998" class="icon-icon-0" data-fill-palette-color="accent" id="icon-0"><path d="M87.426 16.413H12.574c-1.06 0-1.919 0.859-1.919 1.919v2.879c0 1.061 0.859 1.919 1.919 1.919h0.959v49.901 8.637c0 1.06 0.859 1.919 1.919 1.919h25.91 17.273 25.91c1.06 0 1.919-0.859 1.919-1.919v-8.637V23.13h0.959c1.06 0 1.919-0.858 1.919-1.919v-2.879C89.345 17.272 88.486 16.413 87.426 16.413zM58.637 50.959H41.363c-1.06 0-1.919 0.859-1.919 1.919v18.233H17.373V38.481c0.739 0.31 1.549 0.483 2.398 0.483 1.675 0 3.197-0.663 4.319-1.74 1.121 1.078 2.644 1.74 4.318 1.74 1.675 0 3.198-0.663 4.319-1.74 1.121 1.078 2.644 1.74 4.318 1.74s3.197-0.663 4.318-1.74c1.122 1.078 2.644 1.74 4.319 1.74 1.674 0 3.196-0.663 4.318-1.74 1.122 1.078 2.644 1.74 4.318 1.74 1.675 0 3.197-0.663 4.319-1.74 1.121 1.078 2.644 1.74 4.318 1.74s3.197-0.663 4.318-1.74c1.121 1.078 2.644 1.74 4.319 1.74 1.674 0 3.197-0.663 4.318-1.74 1.122 1.078 2.644 1.74 4.319 1.74 0.85 0 1.659-0.173 2.398-0.483v32.631H60.556V52.879C60.556 51.819 59.697 50.959 58.637 50.959zM65.354 23.13v9.597c0 1.323-1.077 2.399-2.399 2.399s-2.399-1.076-2.399-2.399V23.13H65.354zM56.717 23.13v9.597c0 1.323-1.076 2.399-2.399 2.399-1.322 0-2.398-1.076-2.398-2.399V23.13H56.717zM48.081 23.13v9.597c0 1.323-1.076 2.399-2.398 2.399-1.323 0-2.399-1.076-2.399-2.399V23.13H48.081zM39.444 23.13v9.597c0 1.323-1.076 2.399-2.399 2.399s-2.399-1.076-2.399-2.399V23.13H39.444zM30.808 23.13v9.597c0 1.323-1.077 2.399-2.4 2.399-1.322 0-2.398-1.076-2.398-2.399V23.13H30.808zM73.991 32.727c0 1.323-1.076 2.399-2.398 2.399-1.323 0-2.4-1.076-2.4-2.399V23.13h4.798V32.727zM22.17 23.13v9.597c0 1.323-1.077 2.399-2.399 2.399-1.322 0-2.398-1.076-2.398-2.399V23.13H22.17zM17.373 74.951h22.071v4.798H17.373V74.951zM43.283 73.031V54.798h13.435v18.233 6.717H43.283V73.031zM82.627 79.749H60.556v-4.798h22.071V79.749zM82.627 32.727c0 1.323-1.076 2.399-2.398 2.399-1.323 0-2.399-1.076-2.399-2.399V23.13h4.798V32.727z" fill="#ff851b" data-fill-palette-color="accent"></path></svg></g></svg></g></svg></g><defs></defs></svg><rect width="395.52" height="116.96993887685535" fill="none" stroke="none" visibility="hidden"></rect></g></svg></g></svg>